<svg xmlns="http://www.w3.org/2000/svg" data-name="Layer 2" viewBox="0 0 1920.53 469.12"><g data-name="Layer 1"><path d="M550.69 231.16c0-85.44 63.01-144.89 140.62-144.89s140.26 60.52 140.26 144.89-61.94 144.53-140.26 144.53-140.62-59.09-140.62-144.53Zm225.34 0c0-53.4-35.6-95.05-84.37-95.05s-85.44 39.87-85.44 95.05 38.09 94.69 85.44 94.69 84.37-40.23 84.37-94.69Zm64.07 39.16c0-65.5 40.58-105.02 89.71-105.02 29.19 0 49.13 14.6 60.16 45.21h6.41c-6.05-50.91-6.05-88.29-5.7-125.66h49.84V307.7c0 32.75 2.49 46.28 6.41 61.94H997.8c-2.49-10.68-3.92-18.16-1.07-33.46h-6.41c-11.75 30.26-35.96 39.51-60.16 39.51-55.18 0-90.06-44.5-90.06-105.37Zm151.65-.36c0-33.82-21.36-57.31-50.19-57.31s-49.84 23.85-49.84 57.67 20.29 57.67 49.84 57.67 50.19-24.56 50.19-58.03Zm134.21 108.22L1049.07 171h54.82c16.73 45.92 32.04 90.06 45.92 153.07h6.41c13.88-62.65 29.55-107.51 45.57-153.07h53.4l-102.88 276.96h-53.04l26.7-69.77Zm117.48-58.38 46.28-14.95c8.9 22.07 25.63 29.9 39.87 29.9 11.75 0 25.99-4.63 25.99-18.87s-14.95-18.87-28.12-22.78l-21-6.41c-24.92-7.48-53.75-22.43-53.75-59.09s32.04-62.3 74.76-62.3c39.87 0 67.64 22.07 75.83 50.19l-45.92 14.95c-4.63-13.17-13.88-24.56-31.33-24.56-13.88 0-23.5 7.48-23.5 18.51 0 14.24 18.87 20.29 34.89 24.92l15.31 4.27c19.58 5.7 55.89 15.66 55.89 57.67 0 39.16-30.62 64.43-78.67 64.43-45.21 0-77.25-22.78-86.5-55.89Zm166.25 0 46.28-14.95c8.9 22.07 25.63 29.9 39.87 29.9 11.75 0 25.99-4.63 25.99-18.87s-14.95-18.87-28.12-22.78l-21-6.41c-24.92-7.48-53.75-22.43-53.75-59.09s32.04-62.3 74.76-62.3c39.87 0 67.64 22.07 75.83 50.19l-45.92 14.95c-4.63-13.17-13.88-24.56-31.33-24.56-13.88 0-23.5 7.48-23.5 18.51 0 14.24 18.87 20.29 34.89 24.92l15.31 4.27c19.58 5.7 55.89 15.66 55.89 57.67 0 39.16-30.61 64.43-78.67 64.43-45.21 0-77.25-22.78-86.5-55.89Zm170.52-48.42c0-61.23 41.29-106.08 99.32-106.08 49.48 0 95.76 32.75 95.76 105.73v11.75h-145.24c4.27 31.68 26.7 48.06 52.69 48.06 20.29 0 38.09-11.39 46.63-31.68l46.63 18.87c-13.17 32.75-46.63 57.67-92.91 57.67-58.74 0-102.88-41.29-102.88-104.3Zm98.96-63.36c-25.63 0-41.65 17.8-46.63 42.36h92.56c-3.56-30.26-23.5-42.36-45.92-42.36Zm115.7-37.02H1844c0 10.32 1.42 20.29-4.98 43.43h6.41c9.97-32.04 28.83-49.13 55.89-49.13 6.05 0 12.46 1.07 19.22 3.56v55.89c-7.83-2.85-18.16-3.92-24.21-3.92-46.28 0-51.62 43.07-51.62 71.91v76.89h-49.84V170.99Z" style="fill:#fff"/><path d="M241.73 4.13c-.18-1.35-.37-2.69-.56-4.03-2.19-.06-4.39-.1-6.6-.1a235.2 235.2 0 0 0-59.31 7.57c1.73 6.07 3.32 12.41 5.02 19.53 6.28 27.1 11.09 56.07 14.68 88.47.91 8.52 1.72 17.08 2.44 25.65-5.82-6.77-11.62-13.64-17.37-20.58-20.6-25.49-43.95-55.65-63.67-88.72a235.765 235.765 0 0 0-84.39 84.36c5.83 3.49 11.44 7.07 16.49 10.34 29.19 19.44 60.08 42.94 90.96 69.14-8.03-.65-15.99-1.37-23.86-2.18-32.55-3.54-70.4-8.54-107.92-18.58C2.66 194.02 0 213.97 0 234.55s2.65 40.49 7.62 59.49c16.95-4.57 33.89-7.81 48.64-10.42 28.43-4.8 58.08-8.4 88.61-10.75-51.57 43.67-86.83 65.98-112.75 80.2a235.194 235.194 0 0 0 43.01 53.5c6.16-4.32 12.14-8.87 17.92-13.51C202.74 303.87 258.06 143.01 241.73 4.13Zm86.58 269.01c40.86 3.16 87.73 8.88 133.18 20.99 4.98-19.02 7.64-38.99 7.64-59.57s-2.65-40.47-7.61-59.46c-16.94 4.62-33.92 7.89-48.71 10.53-28.19 4.88-57.48 8.43-88.85 10.75 7.36-6.24 14.76-12.36 22.2-18.33 22.55-17.79 52.64-40.57 85.47-59.08.85-.48 1.7-.95 2.56-1.43.79-.44 1.58-.87 2.37-1.3l.14-.08c.1-.05.19-.1.29-.15a235.856 235.856 0 0 0-41.76-52.33c-1.11.83-2.21 1.66-3.31 2.51-114.56 90.66-192.16 255.85-166.02 402.76 2.88.1 5.77.18 8.67.18 20.48 0 40.34-2.63 59.28-7.56-4.97-17-8.48-34.07-11.31-48.93-4.85-26.6-8.61-55.91-11.14-86.5 33.23 38.48 60.9 76.19 81.42 111.03a235.756 235.756 0 0 0 84.26-84.2c-15.17-8.72-29.41-18.41-41.68-27.02-22.54-16.17-44.99-33.84-67.09-52.8Z" style="fill:#00f"/></g></svg>